<svg width="24" height="24" viewBox="0 0 24 24" fill="none" xmlns="http://www.w3.org/2000/svg">
<g clip-path="url(#clip0_141_10888)">
<path d="M22.9145 8.66809C22.8505 9.52709 22.2165 10.2251 21.3605 10.3281C20.615 10.4176 19.6225 10.5001 18.5 10.5001C17.3775 10.5001 16.3855 10.4176 15.6395 10.3281C14.7835 10.2251 14.1495 9.52709 14.0855 8.66809C14.0405 8.05609 14 7.34809 14 6.75009C14 4.65109 15.6875 3.02509 17.7865 3.00359C18.2622 2.9988 18.7378 2.9988 19.2135 3.00359C21.3125 3.02459 23 4.65109 23 6.75009C23 7.34759 22.96 8.05609 22.9145 8.66809Z" stroke="#4A413F" stroke-width="1.5"/>
<path d="M18.5 1V3M17 6.5V7M20 6.5V7" stroke="#221D1D" stroke-width="1.5" stroke-linecap="round" stroke-linejoin="round"/>
<path d="M10.8525 21.3862C14.3535 20.7902 17.0795 17.9192 17.4555 14.3482C17.5105 13.8242 17.22 13.3282 16.7085 13.2002C16.2897 13.0964 15.8574 13.0584 15.427 13.0877C14.87 13.1242 14.5155 13.6392 14.4165 14.1887C13.974 16.6402 11.8295 18.5002 9.24995 18.5002C6.65645 18.5002 4.50195 16.6192 4.07645 14.1472C3.98495 13.6172 3.65395 13.1152 3.11645 13.0847C2.69932 13.064 2.28136 13.1034 1.87545 13.2017C1.32245 13.3322 0.987954 13.8612 1.05295 14.4257C1.43995 17.7857 3.90945 20.5127 7.13795 21.2822C7.16895 21.5082 7.20545 21.7367 7.24845 21.9727C7.35195 22.5407 7.80195 22.9647 8.37845 22.9882C8.7928 23.0043 9.20761 23.0043 9.62195 22.9882C10.199 22.9647 10.6485 22.5407 10.7545 21.9732C10.7918 21.7732 10.8245 21.5776 10.8525 21.3862Z" stroke="#221D1D" stroke-width="1.5" stroke-linejoin="round"/>
<path d="M9.25 18.5C6.3505 18.5 4 16.1495 4 13.25V8.75C4 5.8505 6.3505 3.5 9.25 3.5C10.155 3.5 11.0065 3.729 11.75 4.1325" stroke="#221D1D" stroke-width="1.5" stroke-linecap="round" stroke-linejoin="round"/>
</g>
<defs>
<clipPath id="clip0_141_10888">
<rect width="24" height="24" fill="white"/>
</clipPath>
</defs>
</svg>
