<svg width="150" height="149" viewBox="0 0 150 149" fill="none" xmlns="http://www.w3.org/2000/svg">
<rect x="31.9873" width="121.658" height="121.658" rx="32" transform="rotate(15 31.9873 0)" fill="#07CAEC"/>
<rect x="0.5" y="31.4873" width="121.658" height="121.658" rx="32" transform="rotate(-15 0.5 31.4873)" fill="#EC4007"/>
<path d="M86.2619 54.9196C89.6487 51.2255 95.3744 50.7981 99.279 54.0295C103.184 57.2611 103.835 62.9664 100.839 66.9843L100.537 67.367L79.3994 92.9095C74.4198 98.9265 65.4069 99.441 59.7749 94.1043L59.5091 93.8453L50.1428 84.48L49.8069 84.1265C46.4469 80.4077 46.5589 74.6661 50.1428 71.0821C53.7268 67.4982 59.4684 67.3862 63.1872 70.7462L63.5407 71.0821L68.6445 76.1869L85.9415 55.2877L86.2619 54.9196Z" fill="white"/>
</svg>
