<svg width="90" height="90" viewBox="0 0 90 90" fill="none" xmlns="http://www.w3.org/2000/svg">
<g filter="url(#filter0_d_107_20440)">
<rect x="17" y="17" width="56" height="56" rx="28" fill="white" shape-rendering="crispEdges"/>
<rect x="17.25" y="17.25" width="55.5" height="55.5" rx="27.75" stroke="#FAF4F2" stroke-width="0.5" shape-rendering="crispEdges"/>
<path d="M42.5312 52.0199L42.2583 51.3213L42.5312 52.0199ZM38.4748 52.7988L38.0998 53.4483L38.0998 53.4483L38.4748 52.7988ZM37.1212 48.8964L36.3797 49.0093L37.1212 48.8964ZM37.6115 46.2941L38.261 46.6691L37.6115 46.2941ZM37.0273 47.5314L36.2903 47.3925H36.2903L37.0273 47.5314ZM44.5397 50.2941L45.1892 50.6691L44.5397 50.2941ZM43.7602 51.4186L44.249 51.9875H44.249L43.7602 51.4186ZM41.4099 39.715L40.7604 39.34L41.4099 39.715ZM52.4099 54.0009C52.8241 54.0009 53.1599 53.6651 53.1599 53.2509C53.1599 52.8367 52.8241 52.5009 52.4099 52.5009V54.0009ZM46.4099 52.5009C45.9957 52.5009 45.6599 52.8367 45.6599 53.2509C45.6599 53.6651 45.9957 54.0009 46.4099 54.0009V52.5009ZM48.3381 43.715L47.6886 43.34L43.8901 49.9191L44.5397 50.2941L45.1892 50.6691L48.9876 44.09L48.3381 43.715ZM37.6115 46.2941L38.261 46.6691L42.0594 40.09L41.4099 39.715L40.7604 39.34L36.9619 45.9191L37.6115 46.2941ZM42.5312 52.0199L42.2583 51.3213C41.1618 51.7497 40.415 52.0394 39.8385 52.1741C39.2817 52.3042 39.029 52.2527 38.8498 52.1493L38.4748 52.7988L38.0998 53.4483C38.7531 53.8255 39.4539 53.8044 40.1798 53.6348C40.8861 53.4698 41.7513 53.1298 42.8041 52.7184L42.5312 52.0199ZM37.1212 48.8964L36.3797 49.0093C36.5499 50.1267 36.688 51.046 36.8983 51.7402C37.1144 52.4536 37.4465 53.0712 38.0998 53.4483L38.4748 52.7988L38.8498 52.1493C38.6706 52.0458 38.4997 51.8527 38.3339 51.3054C38.1623 50.7388 38.0399 49.9472 37.8626 48.7835L37.1212 48.8964ZM37.6115 46.2941L36.9619 45.9191C36.6401 46.4765 36.3825 46.9033 36.2903 47.3925L37.0273 47.5314L37.7643 47.6702C37.7983 47.49 37.888 47.3151 38.261 46.6691L37.6115 46.2941ZM37.1212 48.8964L37.8626 48.7835C37.7503 48.046 37.7304 47.8505 37.7643 47.6702L37.0273 47.5314L36.2903 47.3925C36.1981 47.8817 36.2828 48.373 36.3797 49.0093L37.1212 48.8964ZM44.5397 50.2941L43.8901 49.9191C43.5172 50.5651 43.4105 50.7303 43.2715 50.8498L43.7602 51.4186L44.249 51.9875C44.6266 51.6631 44.8674 51.2265 45.1892 50.6691L44.5397 50.2941ZM42.5312 52.0199L42.8041 52.7184C43.4036 52.4842 43.8714 52.3119 44.249 51.9875L43.7602 51.4186L43.2715 50.8498C43.1324 50.9693 42.953 51.0498 42.2583 51.3213L42.5312 52.0199ZM46.874 38.2509L46.499 38.9004C47.3339 39.3825 47.8939 39.7076 48.2797 40.0054C48.6483 40.2898 48.7658 40.4814 48.8135 40.6595L49.5379 40.4653L50.2623 40.2712C50.0956 39.649 49.6976 39.2048 49.1961 38.8179C48.7119 38.4442 48.0471 38.0622 47.249 37.6014L46.874 38.2509ZM48.3381 43.715L48.9876 44.09C49.4484 43.2919 49.8331 42.6287 50.0657 42.063C50.3065 41.4771 50.4291 40.8934 50.2623 40.2712L49.5379 40.4653L48.8135 40.6595C48.8612 40.8375 48.8553 41.0621 48.6783 41.4928C48.493 41.9436 48.1706 42.5052 47.6886 43.34L48.3381 43.715ZM46.874 38.2509L47.249 37.6014C46.4509 37.1406 45.7877 36.7559 45.222 36.5234C44.6361 36.2826 44.0524 36.16 43.4302 36.3267L43.6243 37.0511L43.8184 37.7756C43.9964 37.7279 44.2211 37.7338 44.6518 37.9108C45.1025 38.096 45.6641 38.4184 46.499 38.9004L46.874 38.2509ZM41.4099 39.715L42.0594 40.09C42.5414 39.2552 42.8666 38.6952 43.1643 38.3093C43.4488 37.9407 43.6404 37.8233 43.8184 37.7756L43.6243 37.0511L43.4302 36.3267C42.808 36.4934 42.3638 36.8914 41.9768 37.3929C41.6031 37.8772 41.2212 38.5419 40.7604 39.34L41.4099 39.715ZM48.3381 43.715L48.7131 43.0655L41.7849 39.0655L41.4099 39.715L41.0349 40.3645L47.9631 44.3645L48.3381 43.715ZM52.4099 53.2509V52.5009H46.4099V53.2509V54.0009H52.4099V53.2509Z" fill="#221D1D"/>
</g>
<defs>
<filter id="filter0_d_107_20440" x="0" y="0" width="90" height="90" filterUnits="userSpaceOnUse" color-interpolation-filters="sRGB">
<feFlood flood-opacity="0" result="BackgroundImageFix"/>
<feColorMatrix in="SourceAlpha" type="matrix" values="0 0 0 0 0 0 0 0 0 0 0 0 0 0 0 0 0 0 127 0" result="hardAlpha"/>
<feOffset/>
<feGaussianBlur stdDeviation="8.5"/>
<feComposite in2="hardAlpha" operator="out"/>
<feColorMatrix type="matrix" values="0 0 0 0 0.92549 0 0 0 0 0.251961 0 0 0 0 0.027451 0 0 0 0.1 0"/>
<feBlend mode="normal" in2="BackgroundImageFix" result="effect1_dropShadow_107_20440"/>
<feBlend mode="normal" in="SourceGraphic" in2="effect1_dropShadow_107_20440" result="shape"/>
</filter>
</defs>
</svg>
