<svg width="25" height="24" viewBox="0 0 25 24" fill="none" xmlns="http://www.w3.org/2000/svg">
<path d="M10.0312 19.0199L9.75825 18.3213L10.0312 19.0199ZM5.97478 19.7988L5.59978 20.4483L5.59978 20.4483L5.97478 19.7988ZM4.62116 15.8964L3.87971 16.0093L4.62116 15.8964ZM5.11146 13.2941L5.76098 13.6691L5.11146 13.2941ZM4.52731 14.5314L3.79028 14.3925H3.79028L4.52731 14.5314ZM12.0397 17.2941L12.6892 17.6691L12.0397 17.2941ZM11.2602 18.4186L11.749 18.9875H11.749L11.2602 18.4186ZM8.9099 6.71503L8.26038 6.34003L8.9099 6.71503ZM19.9099 21.0009C20.3241 21.0009 20.6599 20.6651 20.6599 20.2509C20.6599 19.8367 20.3241 19.5009 19.9099 19.5009V21.0009ZM13.9099 19.5009C13.4957 19.5009 13.1599 19.8367 13.1599 20.2509C13.1599 20.6651 13.4957 21.0009 13.9099 21.0009V19.5009ZM15.8381 10.715L15.1886 10.34L11.3901 16.9191L12.0397 17.2941L12.6892 17.6691L16.4876 11.09L15.8381 10.715ZM5.11146 13.2941L5.76098 13.6691L9.55942 7.09003L8.9099 6.71503L8.26038 6.34003L4.46194 12.9191L5.11146 13.2941ZM10.0312 19.0199L9.75825 18.3213C8.66178 18.7497 7.91502 19.0394 7.33854 19.1741C6.78167 19.3042 6.52898 19.2527 6.34978 19.1493L5.97478 19.7988L5.59978 20.4483C6.25305 20.8255 6.95392 20.8044 7.67981 20.6348C8.38609 20.4698 9.25129 20.1298 10.3041 19.7184L10.0312 19.0199ZM4.62116 15.8964L3.87971 16.0093C4.0499 17.1267 4.18805 18.046 4.39829 18.7402C4.61436 19.4536 4.94651 20.0712 5.59978 20.4483L5.97478 19.7988L6.34978 19.1493C6.17059 19.0458 5.99965 18.8527 5.83389 18.3054C5.66229 17.7388 5.53986 16.9472 5.36261 15.7835L4.62116 15.8964ZM5.11146 13.2941L4.46194 12.9191C4.14012 13.4765 3.88246 13.9033 3.79028 14.3925L4.52731 14.5314L5.26434 14.6702C5.2983 14.49 5.38802 14.3151 5.76098 13.6691L5.11146 13.2941ZM4.62116 15.8964L5.36261 15.7835C5.2503 15.046 5.23039 14.8505 5.26434 14.6702L4.52731 14.5314L3.79028 14.3925C3.6981 14.8817 3.7828 15.373 3.87971 16.0093L4.62116 15.8964ZM12.0397 17.2941L11.3901 16.9191C11.0172 17.5651 10.9105 17.7303 10.7715 17.8498L11.2602 18.4186L11.749 18.9875C12.1266 18.6631 12.3674 18.2265 12.6892 17.6691L12.0397 17.2941ZM10.0312 19.0199L10.3041 19.7184C10.9036 19.4842 11.3714 19.3119 11.749 18.9875L11.2602 18.4186L10.7715 17.8498C10.6324 17.9693 10.453 18.0498 9.75825 18.3213L10.0312 19.0199ZM14.374 5.25093L13.999 5.90045C14.8339 6.38245 15.3939 6.70761 15.7797 7.00537C16.1483 7.28983 16.2658 7.48144 16.3135 7.65945L17.0379 7.46534L17.7623 7.27123C17.5956 6.64904 17.1976 6.20485 16.6961 5.81785C16.2119 5.44416 15.5471 5.06221 14.749 4.60141L14.374 5.25093ZM15.8381 10.715L16.4876 11.09C16.9484 10.2919 17.3331 9.62875 17.5657 9.06299C17.8065 8.47711 17.9291 7.89341 17.7623 7.27123L17.0379 7.46534L16.3135 7.65945C16.3612 7.83747 16.3553 8.06212 16.1783 8.49278C15.993 8.94357 15.6706 9.50517 15.1886 10.34L15.8381 10.715ZM14.374 5.25093L14.749 4.60141C13.9509 4.1406 13.2877 3.7559 12.722 3.52337C12.1361 3.28257 11.5524 3.15997 10.9302 3.32668L11.1243 4.05113L11.3184 4.77557C11.4964 4.72787 11.7211 4.73376 12.1518 4.91076C12.6025 5.09604 13.1641 5.41844 13.999 5.90045L14.374 5.25093ZM8.9099 6.71503L9.55942 7.09003C10.0414 6.25517 10.3666 5.69516 10.6643 5.30931C10.9488 4.9407 11.1404 4.82327 11.3184 4.77557L11.1243 4.05113L10.9302 3.32668C10.308 3.49339 9.86382 3.89142 9.47683 4.39291C9.10313 4.87716 8.72118 5.54189 8.26038 6.34003L8.9099 6.71503ZM15.8381 10.715L16.2131 10.0655L9.2849 6.06551L8.9099 6.71503L8.5349 7.36455L15.4631 11.3645L15.8381 10.715ZM19.9099 20.2509V19.5009H13.9099V20.2509V21.0009H19.9099V20.2509Z" fill="#221D1D"/>
</svg>
