<svg width="24" height="24" viewBox="0 0 24 24" fill="none" xmlns="http://www.w3.org/2000/svg">
<path d="M12 20.25H16.25C17.3109 20.25 18.3283 19.8286 19.0784 19.0784C19.8286 18.3283 20.25 17.3109 20.25 16.25V13.75M12 20.25H7.75C6.68913 20.25 5.67172 19.8286 4.92157 19.0784C4.17143 18.3283 3.75 17.3109 3.75 16.25V12M12 20.25V15C12 14.2044 11.6839 13.4413 11.1213 12.8787C10.5587 12.3161 9.79565 12 9 12H3.75M3.75 12V7.75C3.75 6.68913 4.17143 5.67172 4.92157 4.92157C5.67172 4.17143 6.68913 3.75 7.75 3.75H10.25M13.75 3.75H19.25C19.526 3.75 19.776 3.862 19.957 4.043M19.957 4.043C20.1446 4.23049 20.2499 4.48481 20.25 4.75V10.25M19.957 4.043L19.25 4.75L13.75 10.25" stroke="#221D1D" stroke-width="1.5" stroke-linecap="round" stroke-linejoin="round"/>
</svg>
