<svg width="141" height="24" viewBox="0 0 141 24" fill="none" xmlns="http://www.w3.org/2000/svg">
<rect x="24" y="9.75" width="4.5" height="4.5" fill="#221D1D"/>
<rect x="120.75" y="9.75" width="4.5" height="4.5" fill="#221D1D"/>
<path d="M132.123 7.29736C133.701 7.29737 134.669 7.98748 135.199 8.54736H135.2C135.426 8.79652 135.513 9.11154 135.451 9.4165L135.416 9.54639C135.296 9.89205 135.003 10.1493 134.618 10.2319L134.587 10.2388L134.582 10.2407C134.144 10.2276 133.839 10.0602 133.492 9.86084C133.132 9.6539 132.722 9.41065 132.123 9.41064C132.024 9.41064 131.725 9.41948 131.443 9.50244C131.302 9.54381 131.146 9.60951 131.021 9.71826C130.888 9.83335 130.791 9.99755 130.791 10.2104C130.791 10.5108 130.922 10.7397 131.14 10.8979C131.342 11.0448 131.611 11.1252 131.89 11.1772C132.173 11.2301 132.499 11.2592 132.834 11.2847C133.174 11.3105 133.525 11.3332 133.877 11.3726C134.586 11.452 135.248 11.5953 135.731 11.9302C136.193 12.2511 136.518 12.7677 136.518 13.6733C136.518 13.9464 136.402 14.6098 135.847 15.2026C135.299 15.7882 134.293 16.3364 132.456 16.3364C130.859 16.3364 129.959 15.829 129.452 15.3306C128.956 14.842 128.814 14.3384 128.785 14.2417C128.729 13.9867 128.783 13.6808 128.939 13.4409C129.092 13.2059 129.337 13.0405 129.676 13.0405C129.953 13.0405 130.099 13.1034 130.202 13.1782C130.327 13.2684 130.399 13.3749 130.556 13.5493C130.703 13.713 130.892 13.8882 131.198 14.0181C131.5 14.1459 131.898 14.2231 132.456 14.2231C132.705 14.2231 133.118 14.2401 133.457 14.1909C133.627 14.1663 133.81 14.1215 133.956 14.0298C134.115 13.9301 134.238 13.7677 134.238 13.5396C134.237 13.2551 134.092 13.0459 133.883 12.9019C133.686 12.7661 133.423 12.68 133.146 12.6167C132.864 12.5525 132.539 12.5061 132.203 12.4614C131.864 12.4162 131.511 12.3724 131.156 12.3149C130.443 12.1992 129.77 12.0315 129.279 11.7104C128.806 11.4017 128.494 10.9485 128.494 10.2104C128.494 9.3557 128.858 8.63525 129.487 8.12354C130.118 7.60893 131.029 7.29736 132.123 7.29736Z" fill="white" stroke="#F9F9F9" stroke-width="0.5"/>
<path d="M125.426 3.91797C126.22 3.91797 126.857 4.55542 126.857 5.34961V14.7051C126.857 15.481 126.221 16.1201 125.426 16.1201C125.098 16.1201 124.775 16.0056 124.542 15.7998L124.424 15.6953L124.278 15.7578C123.725 15.9948 123.142 16.1201 122.546 16.1201C120.187 16.1201 118.251 14.1843 118.251 11.8252C118.251 10.331 118.88 9.25918 119.727 8.55664C120.582 7.84833 121.661 7.51367 122.546 7.51367C122.936 7.51369 123.331 7.57609 123.698 7.67188L124.01 7.75391V5.34961C124.01 4.5538 124.65 3.91798 125.426 3.91797ZM122.546 10.3604C121.718 10.3604 121.096 11.0281 121.096 11.8252C121.096 12.6292 121.742 13.2734 122.546 13.2734C123.345 13.2734 124.01 12.6336 124.01 11.8252C124.01 11.0213 123.35 10.3604 122.546 10.3604Z" fill="white" stroke="#F9F9F9" stroke-width="0.5"/>
<path d="M115.301 7.43115C116.096 7.4313 116.731 8.06947 116.731 8.84521V14.7056C116.731 15.4813 116.096 16.1205 115.301 16.1206C114.523 16.1206 113.886 15.483 113.885 14.7056V8.84521L113.893 8.70166C113.966 7.99088 114.572 7.43115 115.301 7.43115ZM115.384 3.71826C116.176 3.71829 116.815 4.37076 116.815 5.1499C116.815 5.94397 116.178 6.58152 115.384 6.58154C114.589 6.58154 113.952 5.94399 113.952 5.1499C113.952 4.37074 114.591 3.71826 115.384 3.71826Z" fill="white" stroke="#F9F9F9" stroke-width="0.5"/>
<path d="M110.867 3.88477C111.181 3.88482 111.505 3.98361 111.771 4.17969L111.882 4.27051C112.493 4.82597 112.537 5.78136 111.981 6.39551L109.101 9.54199L108.959 9.69824L109.088 9.86426L112.051 13.6758V13.6768C112.264 13.9526 112.377 14.292 112.364 14.6377L112.351 14.7861L112.35 14.7939C112.264 15.5463 111.626 16.1034 110.867 16.1035C110.455 16.1035 110.077 15.9405 109.797 15.6504L109.684 15.5186L109.683 15.5176L107.252 12.4043L106.805 11.8311V14.6055C106.805 15.4299 106.121 16.1035 105.29 16.1035C104.463 16.1035 103.792 15.433 103.792 14.6055V5.38281C103.792 4.55532 104.463 3.88477 105.29 3.88477C106.121 3.8848 106.805 4.55842 106.805 5.38281V7.61035L107.239 7.13281L109.753 4.36914C110.052 4.04186 110.45 3.88477 110.867 3.88477Z" fill="white" stroke="#F9F9F9" stroke-width="0.5"/>
<path d="M96.9194 8.31055L95.4712 9.62598L94.9917 10.0615H97.3374V7.93164L96.9194 8.31055ZM90.728 11.501C90.7155 11.1388 90.834 10.7899 91.062 10.5195L91.1665 10.4082L97.5757 4.29883L97.5806 4.29492C97.8574 4.01808 98.2097 3.86279 98.5825 3.83789L98.7437 3.83496H98.7515C99.631 3.83496 100.333 4.45693 100.333 5.33301V10.0645L100.57 10.0771C101.353 10.12 101.981 10.7768 101.981 11.5762C101.981 12.3716 101.355 13.0167 100.565 13.0742L100.333 13.0918V14.5557C100.333 15.3831 99.6628 16.0536 98.8354 16.0537C98.008 16.0537 97.3374 15.3832 97.3374 14.5557V13.0742H92.2261C91.6169 13.0742 91.2546 12.8043 91.0347 12.4814C90.8059 12.1454 90.728 11.7431 90.728 11.5088V11.501Z" fill="#EC4007" stroke="#FB9583" stroke-width="0.5"/>
<path d="M85.9663 7.51367C86.4793 7.5137 87.3615 7.66366 88.1079 8.18457C88.84 8.69549 89.4614 9.57629 89.4614 11.0928C89.4614 11.3848 89.3364 11.7082 89.0229 11.9639C88.7073 12.2213 88.1825 12.4238 87.3647 12.4238H84.9175L84.9907 12.7324V12.7334L84.9917 12.7354C84.992 12.7367 84.9923 12.7387 84.9927 12.7402C84.9935 12.7431 84.9945 12.7465 84.9956 12.75C84.9978 12.7574 85.0007 12.7665 85.0044 12.7764C85.0118 12.7962 85.0224 12.8209 85.0376 12.8486C85.0684 12.9049 85.1175 12.9736 85.1938 13.0391C85.3501 13.1729 85.5952 13.2734 85.9663 13.2734C86.2837 13.2734 86.6448 13.2491 86.9731 13.2373C87.3114 13.2252 87.6285 13.2258 87.9019 13.2686C88.1767 13.3116 88.3788 13.3936 88.5112 13.5205C88.6362 13.6402 88.729 13.8294 88.729 14.1562C88.7289 14.4143 88.6656 14.8999 88.3071 15.3184C87.955 15.7292 87.2797 16.1201 85.9663 16.1201C84.4427 16.1201 83.3768 15.5679 82.689 14.791C81.9962 14.0085 81.6714 12.9794 81.6714 12.0078C81.6715 10.2818 82.4506 9.16682 83.3755 8.47559C84.3125 7.77532 85.3961 7.51367 85.9663 7.51367ZM86.0327 9.77734C85.7267 9.77735 85.4809 9.84868 85.2876 9.96875C85.0949 10.0885 84.9684 10.2478 84.8872 10.4023C84.8069 10.5553 84.7695 10.7055 84.7515 10.8154C84.7424 10.871 84.7379 10.9181 84.7358 10.9521C84.7348 10.969 84.7341 10.9828 84.7339 10.9932V11.0137L84.7378 11.2598H87.3403L87.3315 11.001V10.9941C87.3314 10.9909 87.3309 10.9865 87.3306 10.9814C87.3299 10.9712 87.3285 10.9573 87.3267 10.9404C87.323 10.9068 87.3165 10.8605 87.3052 10.8057C87.2827 10.6969 87.2398 10.5482 87.1567 10.3975C86.9831 10.0824 86.6425 9.77734 86.0327 9.77734Z" fill="white" stroke="#F9F9F9" stroke-width="0.5"/>
<path d="M80.5762 12.4244C80.5762 12.4244 80.5762 12.4244 80.5762 14.7051C80.5762 15.6208 79.827 16.3699 78.9114 16.3699C77.9791 16.3699 77.23 15.6208 77.23 14.7051V12.4744C77.23 11.5754 76.9969 10.6098 76.3477 10.6098C75.6818 10.6098 75.1324 11.1592 75.1324 11.8251V14.7051C75.1324 15.6208 74.3833 16.3699 73.4677 16.3699C72.552 16.3699 71.8029 15.6208 71.8029 14.7051V12.4744C71.8029 11.5754 71.5698 10.6098 70.9039 10.6098C70.238 10.6098 69.7053 11.1592 69.7053 11.8251V14.7051C69.7053 15.6208 68.9562 16.3699 68.0239 16.3699C67.1083 16.3699 66.3591 15.6208 66.3591 14.7051V8.94508C66.3591 8.01281 67.1083 7.26367 68.0239 7.26367C68.4234 7.26367 68.7897 7.4135 69.0893 7.64657C69.6554 7.39685 70.288 7.26367 70.9039 7.26367C71.8861 7.26367 72.8017 7.61327 73.5176 8.24588C74.3167 7.61327 75.3155 7.26367 76.3477 7.26367C79.4441 7.26367 80.5595 10.0438 80.5762 12.4244Z" fill="white"/>
<path d="M63.3096 7.43115C64.1052 7.4313 64.7401 8.06947 64.7402 8.84521V14.7056C64.7401 15.4813 64.1052 16.1205 63.3096 16.1206C62.5321 16.1206 61.8946 15.483 61.8945 14.7056V8.84521L61.9023 8.70166C61.9751 7.99088 62.5806 7.43115 63.3096 7.43115ZM63.3926 3.71826C64.1851 3.71829 64.8242 4.37076 64.8242 5.1499C64.8241 5.94397 64.1867 6.58151 63.3926 6.58154C62.5985 6.58154 61.9611 5.94399 61.9609 5.1499C61.9609 4.37074 62.6 3.71826 63.3926 3.71826Z" fill="white" stroke="#F9F9F9" stroke-width="0.5"/>
<path d="M51.9309 3.88477H59.2063C60.0367 3.885 60.7209 4.55854 60.7209 5.38281C60.7209 6.20706 60.0367 6.88062 59.2063 6.88086H57.0745V14.6055C57.0745 15.433 56.4039 16.1035 55.5764 16.1035C54.749 16.1034 54.0784 15.4329 54.0784 14.6055V6.88086H51.9309C51.1034 6.88086 50.4329 6.21028 50.4329 5.38281C50.4329 4.55532 51.1034 3.88477 51.9309 3.88477Z" fill="white" stroke="#F9F9F9" stroke-width="0.5"/>
<path d="M47.8533 7.51367C48.6106 7.54345 49.2244 8.19257 49.2244 8.97852V15.7656C49.239 16.0729 49.2092 17.6239 48.196 18.8516L47.9802 19.0918C47.2177 19.8697 46.17 20.2822 44.9294 20.2822C43.8469 20.2822 42.9166 19.9362 42.2029 19.2656L42.0632 19.127L42.0593 19.123L41.9392 18.9844C41.7192 18.6904 41.6263 18.3075 41.6824 17.9385L41.7234 17.7559C41.8785 17.284 42.2803 16.9227 42.7634 16.8193H42.7888L42.8123 16.8154C43.196 16.7412 43.5888 16.8294 43.8972 17.0596L44.0242 17.167L44.031 17.1729C44.2429 17.3611 44.5614 17.4521 44.9294 17.4521C45.3404 17.4521 45.6941 17.3644 45.9304 17.1045L45.9285 17.1035C46.0472 16.9896 46.1318 16.8463 46.1921 16.71C46.256 16.5655 46.3022 16.4136 46.3367 16.2842L46.447 15.8701L46.032 15.9785C45.6695 16.0731 45.3074 16.1201 44.9294 16.1201C43.891 16.1201 42.9508 15.7096 42.2449 14.9629L42.1062 14.8096V14.8086C41.4024 13.9875 41.0175 12.894 40.9587 11.5049L40.9509 11.2227V8.94531C40.9509 8.14304 41.5948 7.51708 42.4089 7.51367C43.1698 7.54326 43.7966 8.19567 43.7966 8.97852V11.1592C43.7966 11.6245 43.8569 12.1259 44.0125 12.5205C44.1653 12.9082 44.4492 13.2734 44.9294 13.2734C45.6841 13.2734 46.2936 12.7075 46.3835 11.9795L46.3943 11.8311V8.94531C46.3943 8.12784 47.0372 7.51671 47.8533 7.51367Z" fill="white" stroke="#F9F9F9" stroke-width="0.5"/>
<path d="M36.6172 7.51367C37.7231 7.51371 38.7198 7.97878 39.4561 8.82324V8.82422C39.6642 9.06906 39.7783 9.38051 39.7842 9.71484L39.7803 9.8584C39.7554 10.1936 39.6236 10.4947 39.3906 10.7363L39.2842 10.8359C39.0046 11.0732 38.6379 11.1879 38.25 11.1592H38.251C37.9271 11.1342 37.6181 11.0011 37.3877 10.7725L37.2939 10.6689L37.2871 10.6602L37.2168 10.5889C37.0502 10.4341 36.8539 10.3594 36.6172 10.3594C35.8087 10.3594 35.168 11.0257 35.168 11.8252V14.7051C35.168 15.4809 34.533 16.12 33.7373 16.1201C32.9598 16.1201 32.3223 15.4826 32.3223 14.7051V8.94531C32.3223 8.1495 32.9614 7.51367 33.7373 7.51367C34.0724 7.51374 34.3863 7.63911 34.6494 7.84375L34.7666 7.93555L34.9033 7.875C35.4376 7.63932 36.036 7.51367 36.6172 7.51367Z" fill="white" stroke="#F9F9F9" stroke-width="0.5"/>
<path d="M26.4966 7.53076C28.0727 7.5308 29.1426 8.19155 29.8237 9.0542C30.512 9.92586 30.8081 11.0109 30.8081 11.8423C30.8081 14.2007 28.8728 16.1371 26.4966 16.1372C24.1375 16.1372 22.2017 14.2013 22.2017 11.8423C22.2017 9.46598 24.1381 7.53076 26.4966 7.53076ZM26.4966 10.3765C25.6881 10.3765 25.0474 11.0428 25.0474 11.8423C25.0474 12.6462 25.6926 13.2905 26.4966 13.2905C27.296 13.2905 27.9614 12.6506 27.9614 11.8423C27.9614 11.3885 27.8645 11.0052 27.5991 10.7397C27.3337 10.4743 26.9503 10.3765 26.4966 10.3765Z" fill="white" stroke="#F9F9F9" stroke-width="0.5"/>
<path d="M17.3577 4.58398C18.1519 4.58398 18.7893 5.22143 18.7893 6.01562V7.51367H19.8049C20.3661 7.51367 20.8206 7.96817 20.8206 8.5293C20.8205 9.09037 20.366 9.54395 19.8049 9.54395H18.7893V12.1084C18.7893 12.3978 18.8021 12.6009 18.8206 12.7441C18.8384 12.8825 18.8633 12.982 18.8987 13.0527L18.929 13.1123L18.9836 13.1484C19.0553 13.1962 19.1592 13.2237 19.262 13.2412C19.3766 13.2607 19.5282 13.2744 19.7219 13.2744C20.4977 13.2744 21.1368 13.9094 21.137 14.7051C21.137 15.4826 20.4995 16.1201 19.7219 16.1201C18.3728 16.1201 17.4422 15.7286 16.845 15.0596C16.2431 14.3854 15.9436 13.3889 15.9436 12.1084V9.54395H15.3108C14.7497 9.54395 14.2952 9.09037 14.2952 8.5293C14.2952 7.96817 14.7497 7.51367 15.3108 7.51367H15.9436V6.01562C15.9436 5.21993 16.5819 4.58419 17.3577 4.58398Z" fill="white" stroke="#F9F9F9" stroke-width="0.5"/>
<path d="M8.32959 3.81836C10.335 3.81843 11.5528 4.75212 12.2349 5.52832V5.5293C12.5375 5.8825 12.6585 6.32706 12.5718 6.75098L12.522 6.93164L12.519 6.93945C12.3613 7.44144 11.9787 7.80617 11.4712 7.91895L11.4419 7.92578L11.439 7.92676C10.8613 7.91317 10.4628 7.68231 10.021 7.41602C9.5685 7.14327 9.06436 6.83112 8.32959 6.83105C8.21482 6.83105 7.8475 6.83885 7.50146 6.94336C7.32857 6.99559 7.14149 7.07813 6.99365 7.21191C6.83866 7.35218 6.73096 7.54681 6.73096 7.79688C6.73096 8.16512 6.8788 8.44691 7.13623 8.64746C7.3791 8.8366 7.70597 8.94386 8.05518 9.01367C8.40815 9.08421 8.81507 9.12229 9.23584 9.15625C9.6615 9.1906 10.104 9.22012 10.5474 9.27246C11.4388 9.3777 12.2821 9.56941 12.9009 10.0254C13.5011 10.4678 13.9223 11.1843 13.9224 12.4248C13.9224 12.8093 13.7665 13.7253 13.0503 14.541C12.3425 15.347 11.0596 16.0869 8.74561 16.0869C6.73676 16.0869 5.59265 15.4043 4.94385 14.7207C4.45204 14.2025 4.23169 13.67 4.14404 13.3975L4.09521 13.2217V13.2178L4.06982 13.0771C4.02945 12.742 4.10718 12.366 4.2915 12.0635C4.49806 11.7247 4.82757 11.4932 5.26611 11.4932C5.62315 11.4932 5.81897 11.5787 5.96143 11.6885C6.12543 11.8148 6.22631 11.9696 6.41553 12.1943C6.59515 12.4076 6.82289 12.6354 7.19482 12.8047C7.56258 12.9721 8.05212 13.0742 8.74561 13.0742C9.05734 13.0742 9.56932 13.0999 9.98877 13.0381C10.1993 13.0071 10.4193 12.9503 10.5923 12.8359C10.7789 12.7125 10.9095 12.5211 10.9097 12.2588C10.9097 11.9177 10.7501 11.6591 10.5005 11.4736C10.2633 11.2974 9.94282 11.184 9.59619 11.0986C9.24567 11.0124 8.84059 10.9489 8.41943 10.8887C7.99442 10.8279 7.55138 10.7695 7.10693 10.6924C6.21336 10.5372 5.3612 10.3124 4.73486 9.87598C4.12685 9.45231 3.71827 8.821 3.71826 7.79688C3.71826 6.62815 4.18744 5.63952 4.98975 4.94043C5.79444 4.2395 6.9484 3.81836 8.32959 3.81836Z" fill="white" stroke="#F9F9F9" stroke-width="0.5"/>
<path d="M132.123 3.5791C134.762 3.5791 136.594 4.7067 137.696 5.78334L137.908 5.99739L137.933 6.02449L137.958 6.05294C138.937 7.13592 139.382 8.61737 139.108 10.0834C139.854 11.0784 140.237 12.3146 140.237 13.6736C140.236 14.716 139.871 16.3444 138.562 17.7434C137.157 19.2448 135.073 20.0546 132.456 20.0546C129.987 20.0546 128.116 19.2333 126.843 17.9791C126.275 17.4197 125.896 16.8406 125.646 16.3534C126.472 16.2461 127.106 15.5466 127.106 14.7046V5.3498C127.106 5.32359 127.103 5.29714 127.102 5.27123C127.114 5.26119 127.126 5.25002 127.138 5.24007C128.556 4.08541 130.346 3.57918 132.123 3.5791ZM132.123 7.04735C129.842 7.04751 128.244 8.34635 128.244 10.2108C128.244 13.5228 133.987 12.0586 133.988 13.5395C133.988 14.0389 132.989 13.973 132.456 13.973C130.309 13.973 130.958 12.7903 129.676 12.7903C128.81 12.7903 128.394 13.657 128.543 14.3063C128.594 14.4756 129.146 16.5863 132.456 16.5864C136.234 16.5864 136.768 14.3235 136.768 13.6736C136.768 9.76169 131.042 11.9414 131.042 10.2108C131.042 9.69508 131.939 9.66078 132.123 9.66073C133.172 9.66073 133.555 10.4939 134.637 10.4939L134.67 10.4763C135.136 10.3765 135.502 10.0608 135.652 9.62821C135.802 9.19543 135.703 8.72869 135.386 8.3791C134.82 7.77979 133.787 7.04735 132.123 7.04735Z" fill="#221D1D"/>
<path d="M127.106 5.35022C127.106 4.41795 126.357 3.66893 125.425 3.66893C124.509 3.66908 123.76 4.41805 123.76 5.35022V7.43117C123.377 7.33134 122.96 7.26453 122.544 7.26453C120.663 7.26479 118 8.67998 118 11.8261C118.001 14.3228 120.048 16.3697 122.544 16.37C123.177 16.37 123.793 16.2376 124.376 15.988C124.624 16.2063 124.948 16.3356 125.281 16.3646L125.425 16.37C126.299 16.37 127.012 15.7122 127.098 14.8757L127.106 14.705V5.35022ZM130.574 7.27401C129.152 7.72295 128.244 8.80645 128.244 10.2112C128.244 11.6578 129.34 12.1925 130.574 12.4601V13.189C130.382 12.9702 130.175 12.7907 129.676 12.7907C128.81 12.7907 128.394 13.6574 128.543 14.3067C128.581 14.4307 128.889 15.5911 130.349 16.2061C129.703 18.3177 127.732 19.8383 125.425 19.8383C125.003 19.8383 124.571 19.7838 124.146 19.6743C123.626 19.7805 123.091 19.8383 122.544 19.8383C119.772 19.8381 117.321 18.4167 115.882 16.2657C116.525 16.0306 116.982 15.4192 116.982 14.705V8.84556C116.982 8.13726 116.532 7.52953 115.898 7.29027C116.314 6.68239 116.807 6.14828 117.353 5.69569C118.288 4.91998 119.364 4.38832 120.447 4.08891C121.006 1.86485 123.01 0.200813 125.425 0.200684L125.69 0.206103C128.414 0.343767 130.574 2.59145 130.574 5.35022V7.27401Z" fill="#221D1D"/>
<path d="M113.644 14.8755C113.724 15.6561 114.349 16.2815 115.13 16.3617L115.301 16.3699C116.174 16.3696 116.886 15.7119 116.972 14.8755L116.982 14.7048V8.84538C116.982 7.93001 116.232 7.18064 115.301 7.18036C114.385 7.18036 113.636 7.92984 113.635 8.84538V14.7048L113.644 14.8755ZM115.383 3.36257C114.918 3.36259 114.493 3.5431 114.175 3.83675C114.248 3.82037 114.321 3.80662 114.396 3.7934C113.975 4.10147 113.702 4.59764 113.702 5.14953L113.71 5.32295C113.79 6.11656 114.417 6.74288 115.211 6.82269L115.383 6.83082C116.257 6.83082 116.97 6.17311 117.056 5.32295L117.064 5.14953C117.064 4.62394 116.817 4.1484 116.43 3.8381C116.504 3.85452 116.576 3.87279 116.649 3.89229C116.365 3.60664 115.986 3.41501 115.565 3.37206L115.383 3.36257ZM118.001 11.8259C118.001 13.5215 118.946 15.008 120.334 15.7887C119.833 18.1144 117.757 19.8379 115.301 19.8381C113.024 19.8381 111.089 18.3495 110.419 16.294C110.563 16.3318 110.712 16.3536 110.866 16.3536C111.748 16.3536 112.498 15.7047 112.598 14.8227C112.664 14.3566 112.531 13.8897 112.248 13.5235L110.167 10.845V8.84538C110.167 8.81143 110.168 8.77757 110.169 8.74378L112.166 6.56528C112.815 5.84957 112.765 4.73398 112.049 4.08467C111.716 3.78502 111.282 3.63489 110.866 3.63489C110.724 3.63491 110.583 3.65267 110.446 3.68501C111.076 1.57194 113.031 2.90699e-05 115.383 0L115.65 0.00677392C118.393 0.146502 120.533 2.42854 120.533 5.14953C120.533 5.84401 120.395 6.50582 120.147 7.10991C120.232 7.34613 120.3 7.59028 120.35 7.84149C119.08 8.52288 118.001 9.8232 118.001 11.8259Z" fill="#221D1D"/>
<path d="M115.8 16.2952C115.09 18.3984 113.099 19.8217 110.866 19.8217C109.857 19.8216 108.897 19.5322 108.079 19.0129C107.266 19.5254 106.307 19.8217 105.29 19.8217C102.773 19.8217 100.673 18.04 100.182 15.6693C100.432 15.3669 100.583 14.979 100.583 14.5557V13.3242C101.499 13.2576 102.232 12.5074 102.232 11.5751C102.232 10.6431 101.499 9.8774 100.583 9.82747V5.3323C100.583 4.9045 100.438 4.53232 100.2 4.24169C100.72 1.90968 102.801 0.166504 105.29 0.166504L105.554 0.173278C106.469 0.219419 107.33 0.505105 108.071 0.969891C108.93 0.426924 109.906 0.166567 110.866 0.166504L111.325 0.186826C112.322 0.274993 113.329 0.651312 114.176 1.3411L114.368 1.50639L114.379 1.51451L112.065 4.06693L114.379 1.51587C115.006 2.08452 115.459 2.76984 115.742 3.5074C115.626 3.48203 115.506 3.46811 115.383 3.46811C114.451 3.46815 113.702 4.23391 113.702 5.1494C113.702 6.08164 114.451 6.83065 115.383 6.83069C115.566 6.83069 115.741 6.80141 115.906 6.74804C115.861 6.91447 115.807 7.07891 115.746 7.24119C115.604 7.2026 115.455 7.18027 115.3 7.18022C114.385 7.18022 113.635 7.9297 113.635 8.84525V14.7047C113.635 15.6203 114.385 16.3697 115.3 16.3697C115.474 16.3697 115.642 16.3438 115.8 16.2952ZM103.542 14.6058C103.542 15.5109 104.229 16.2546 105.111 16.344L105.29 16.3535C106.255 16.3533 107.053 15.5711 107.054 14.6058V12.5574L109.484 15.6707C109.775 16.0493 110.195 16.2875 110.663 16.3413L110.866 16.3535C111.748 16.3535 112.497 15.7045 112.597 14.8226C112.664 14.3564 112.531 13.8896 112.248 13.5233L109.285 9.71096L112.165 6.56515C112.814 5.84943 112.764 4.73385 112.049 4.08454C111.716 3.78488 111.282 3.63475 110.866 3.63475C110.383 3.63484 109.918 3.81825 109.568 4.20105L107.054 6.96481V5.38242C107.053 4.41709 106.255 3.63491 105.29 3.63475C104.324 3.63475 103.542 4.41699 103.542 5.38242V14.6058Z" fill="#221D1D"/>
<path d="M100.583 5.33262C100.583 4.30072 99.7499 3.58495 98.7512 3.58495C98.252 3.56843 97.7693 3.75138 97.4032 4.11738L90.9937 10.2275C90.6442 10.5603 90.461 11.0264 90.4775 11.5091C90.4775 12.0241 90.7851 13.1687 91.9759 13.3096L92.2252 13.3245H97.0875V14.556C97.0876 15.4612 97.7748 16.2048 98.6564 16.2942L98.8352 16.3037C99.7402 16.3035 100.484 15.6161 100.573 14.7348L100.583 14.556V13.3245C101.441 13.2621 102.138 12.5994 102.222 11.7489L102.232 11.5755C102.231 10.6434 101.498 9.87773 100.583 9.82779V5.33262ZM87.0472 10.81C87.0761 10.9276 87.0811 11.0105 87.0811 11.0105H87.0283C87.0339 10.9436 87.039 10.8766 87.0472 10.81ZM97.0875 9.81153H95.6379L97.0875 8.49604V9.81153ZM103.542 5.38274V14.6061C103.542 15.0188 103.685 15.3978 103.924 15.6967C103.403 18.0286 101.324 19.7718 98.8352 19.7719C96.7549 19.7719 94.9594 18.5542 94.1219 16.7927H92.2252C90.7006 16.7926 89.4709 16.1964 88.6012 15.3404C88.9174 14.8957 88.9792 14.4199 88.9792 14.1563C88.9792 13.0262 87.9968 12.9518 86.9795 12.9871L87.1773 12.8083C87.166 12.7633 87.1547 12.7187 87.1448 12.6742H87.3643C89.0788 12.6741 89.7107 11.8256 89.7107 11.0932C89.7107 9.5332 89.0791 8.58636 88.3058 8.02322C88.3997 7.91759 88.4987 7.81453 88.6025 7.71568L95.0107 1.60696C96.0324 0.616523 97.3766 0.103485 98.7512 0.119409V0.116699C101.096 0.116699 103.432 1.69251 103.945 4.26369C103.693 4.56677 103.542 4.95718 103.542 5.38274Z" fill="#221D1D"/>
<path d="M86.3894 3.80945C87.4395 3.87619 88.8975 4.20196 90.2357 5.13578C91.3694 5.92705 92.279 7.06892 92.7732 8.53087L90.9943 10.2271C90.6449 10.5599 90.4616 11.026 90.4782 11.5087C90.4782 12.058 90.8279 13.3237 92.2258 13.3241H92.6241C92.562 13.4417 92.4933 13.5563 92.4209 13.6696C92.4366 13.8342 92.448 13.9965 92.448 14.1559C92.448 14.9102 92.278 16.3983 91.1298 17.738C89.8876 19.1873 88.0472 19.8378 85.9667 19.8379C83.459 19.8379 81.3494 18.8882 79.9041 17.2557C79.645 16.9629 79.4142 16.6563 79.2104 16.3398C79.9842 16.1975 80.576 15.5179 80.576 14.7046V12.4245C80.5651 10.8662 80.0826 9.13735 78.8826 8.1285C79.4646 7.03131 80.2696 6.15488 81.1491 5.49751C82.7273 4.31806 84.5923 3.7959 85.9667 3.7959L86.3894 3.80945ZM86.0331 10.0279C87.0484 10.0281 87.0817 11.0101 87.0817 11.0101H84.9845C84.9845 11.0101 84.9677 10.0279 86.0331 10.0279ZM81.4377 12.3947C81.5993 14.3362 82.9857 16.3696 85.9667 16.3696C88.6965 16.3695 88.9798 14.7386 88.9798 14.1559C88.9798 12.6412 87.2153 13.0232 85.9667 13.0233C85.3175 13.0233 85.2338 12.6738 85.2338 12.6738H87.3649C89.0794 12.6737 89.7114 11.8252 89.7114 11.0928C89.7114 7.89686 87.0657 7.26432 85.9667 7.26415C84.7182 7.26415 81.4214 8.37943 81.4214 12.0086L81.4377 12.3947Z" fill="#221D1D"/>
<path d="M64.9904 8.84518C64.9903 7.9298 64.2411 7.18043 63.3091 7.18015C63.2715 7.18015 63.2337 7.18308 63.1967 7.18557C63.2408 7.0639 63.2915 6.94518 63.3444 6.8279C63.3601 6.82834 63.3759 6.83061 63.3918 6.83061C64.324 6.83061 65.0731 6.08159 65.0731 5.14933C65.073 5.01714 65.0552 4.88865 65.0256 4.76457C65.8668 4.15588 66.901 3.7959 68.0238 3.7959L68.2636 3.80132C68.6255 3.81835 68.9703 3.87633 69.2973 3.96118C69.8262 3.85212 70.3657 3.79594 70.9027 3.7959C71.8294 3.7959 72.7334 3.9654 73.5757 4.28904C74.4561 3.96579 75.3943 3.7959 76.3476 3.7959C79.1252 3.79607 81.2252 5.12905 82.4942 7.01487C82.772 7.42764 83.0022 7.85887 83.196 8.29649C82.2287 9.03064 81.4212 10.212 81.4212 12.0086C81.4213 13.5356 82.1808 15.2102 83.8856 15.9632C83.3232 18.1875 81.3078 19.8379 78.9108 19.8379C77.9116 19.8379 76.9755 19.5523 76.1823 19.0575C75.3941 19.5509 74.4641 19.8378 73.4673 19.8379C72.4698 19.8379 71.5382 19.5516 70.7496 19.0575C69.9568 19.5517 69.0221 19.8378 68.0238 19.8379C65.7722 19.8379 63.8559 18.3818 63.1655 16.3615C63.2128 16.3656 63.2609 16.3696 63.3091 16.3696C64.1827 16.3694 64.895 15.7117 64.9809 14.8753L64.9904 14.7046V8.84518ZM66.3588 14.7046L66.3669 14.8753C66.447 15.6559 67.0725 16.2813 67.8531 16.3615L68.0238 16.3696C68.8974 16.3694 69.6097 15.7117 69.6956 14.8753L69.7051 14.7046V11.8257C69.7051 11.16 70.2371 10.6108 70.9027 10.6105C71.5686 10.6105 71.8023 11.5757 71.8023 12.4746V14.7046L71.8104 14.8753C71.8905 15.6563 72.5169 16.2818 73.298 16.3615L73.4673 16.3696C74.3254 16.3695 75.037 15.7117 75.1229 14.8753L75.1323 14.7046V11.8257C75.1323 11.1598 75.6817 10.6105 76.3476 10.6105C76.9964 10.611 77.2295 11.5759 77.2295 12.4746V14.7046L77.2377 14.8753C77.3179 15.6563 77.9449 16.2818 78.7388 16.3615L78.9108 16.3696C79.769 16.3696 80.4805 15.7118 80.5664 14.8753L80.5759 14.7046V12.4245C80.5592 10.0441 79.4436 7.26446 76.3476 7.26415C75.3155 7.26415 74.3165 7.61382 73.5174 8.24636C72.8016 7.61376 71.8849 7.26415 70.9027 7.26415C70.287 7.26423 69.6544 7.3966 69.0886 7.64619C68.7892 7.41336 68.423 7.26428 68.0238 7.26415C67.1082 7.26415 66.3588 8.01317 66.3588 8.94543V14.7046Z" fill="#221D1D"/>
<path d="M61.6519 14.8755C61.732 15.6561 62.3576 16.2815 63.1381 16.3617L63.3088 16.3699C64.1824 16.3696 64.8947 15.7119 64.9806 14.8755L64.9901 14.7048V8.84538C64.99 7.93001 64.2408 7.18064 63.3088 7.18036C62.3932 7.18036 61.6439 7.92984 61.6438 8.84538V14.7048L61.6519 14.8755ZM63.3915 3.36257C62.9263 3.36259 62.5017 3.5431 62.183 3.83675C62.256 3.82037 62.3297 3.80662 62.4038 3.7934C61.9834 4.10147 61.7102 4.59764 61.7102 5.14953L61.7183 5.32295C61.7986 6.11656 62.4256 6.74288 63.2194 6.82269L63.3915 6.83082C64.2652 6.83082 64.9786 6.17311 65.0646 5.32295L65.0727 5.14953C65.0727 4.62394 64.8254 4.1484 64.4387 3.8381C64.512 3.85452 64.5847 3.87279 64.6568 3.89229C64.3729 3.60664 63.9944 3.41501 63.573 3.37206L63.3915 3.36257ZM66.3666 14.8755C66.4524 15.7121 67.1652 16.3699 68.0235 16.3699C68.077 16.3698 68.1298 16.3666 68.182 16.3617C67.4885 18.3917 65.5586 19.8379 63.3088 19.8381C60.4777 19.8381 58.1755 17.5359 58.1755 14.7048V8.84538C58.1756 8.24401 58.2801 7.66685 58.4709 7.13023H59.2052C60.1706 7.13009 60.9691 6.34803 60.9691 5.38256C60.9689 4.41721 60.1705 3.63503 59.2052 3.63489H58.4695C59.1148 1.54708 61.0583 2.88399e-05 63.3915 0L63.6583 0.00677392C66.4015 0.146502 68.5409 2.42854 68.541 5.14953C68.541 5.84401 68.4032 6.50582 68.1549 7.10991C68.1748 7.16517 68.1951 7.2204 68.2131 7.27655C68.1508 7.26907 68.0876 7.26437 68.0235 7.26435C67.1078 7.26435 66.3584 8.01337 66.3584 8.94564V14.7048L66.3666 14.8755Z" fill="#221D1D"/>
<path d="M53.8367 14.7846C53.9204 15.6072 54.5748 16.2604 55.3974 16.344L55.5762 16.3535C56.4813 16.3535 57.2261 15.666 57.3158 14.7846L57.3239 14.6058V7.13009H59.2057L59.3845 7.12196C60.2091 7.03837 60.8764 6.38412 60.9615 5.56125L60.9696 5.38242C60.9695 4.47741 60.2677 3.73382 59.3845 3.64423L59.2057 3.63475V0.166504C61.4501 0.166615 63.4151 1.60114 64.1398 3.64694C63.9147 3.53392 63.6614 3.46811 63.392 3.46811C62.4598 3.46815 61.7108 4.23391 61.7107 5.1494C61.7107 6.08164 62.4598 6.83065 63.392 6.83069C63.728 6.83069 64.0391 6.73192 64.3011 6.56379C64.2379 6.83591 64.1542 7.09916 64.0504 7.35228C63.827 7.24328 63.576 7.1803 63.3094 7.18022C62.3938 7.18022 61.6444 7.9297 61.6443 8.84525V9.99411C61.3729 10.1372 61.0878 10.2561 60.7922 10.3504V14.6058C60.792 17.4867 58.4572 19.8217 55.5762 19.8217C52.6953 19.8217 50.3605 17.4867 50.3603 14.6058V10.3572C50.051 10.2597 49.7544 10.1339 49.4729 9.98327V8.97802C49.4726 8.06265 48.7568 7.29751 47.858 7.26422C47.596 7.26431 47.3482 7.31923 47.1265 7.41866C46.8941 6.87095 46.753 6.2753 46.7214 5.65067L46.7146 5.38242L46.7214 5.11418C46.8611 2.35798 49.1396 0.166504 51.9305 0.166504V3.63475L51.7517 3.64423C50.8703 3.73375 50.183 4.47736 50.1828 5.38242C50.1828 6.28764 50.8701 7.03247 51.7517 7.12196L51.9305 7.13009H53.8286V14.6058L53.8367 14.7846ZM59.2057 0.166504V3.63475H51.9305V0.166504H59.2057Z" fill="#221D1D"/>
<path d="M42.479 3.7959L42.5427 3.79861C43.4811 3.83336 44.349 4.11839 45.0883 4.58574C45.9018 4.08017 46.8585 3.79602 47.8575 3.7959H47.9225L47.9862 3.79861C48.8822 3.83179 49.7052 4.09081 50.4126 4.51393C50.2659 4.76975 50.1824 5.06623 50.1823 5.38235C50.1823 6.34791 50.9644 7.13002 51.93 7.13002H52.5979C52.8191 7.71028 52.9406 8.33453 52.9407 8.97795V15.7546C52.9552 16.6554 52.8055 19.4692 50.6416 21.6885L50.6348 21.694C49.081 23.2794 47.0287 23.9997 44.9285 23.9998C42.8963 23.9998 40.9295 23.2858 39.4294 21.7509V21.7522C39.4215 21.7443 39.4142 21.7358 39.4064 21.7278C39.3975 21.7187 39.3881 21.7099 39.3793 21.7007V21.6994C38.0686 20.3504 37.6518 18.4168 38.1545 16.707L38.1816 16.6176C38.2492 16.4086 38.3302 16.2054 38.4228 16.0093C37.5889 14.5564 37.2496 12.9158 37.2319 11.2635V10.9681C37.5046 11.2291 37.8608 11.3799 38.2304 11.4084C38.6797 11.4417 39.1128 11.3091 39.4457 11.0264C39.7952 10.7267 39.9949 10.327 40.0282 9.87752C40.0615 9.4281 39.9291 8.99521 39.6462 8.66228C39.0591 7.98775 38.3126 7.53736 37.4771 7.35492C38.1583 5.23743 40.1661 3.79607 42.414 3.7959H42.479ZM40.7002 11.2255C40.7168 12.7904 41.1163 14.0392 41.9154 14.9715C42.6812 15.8704 43.7465 16.3696 44.9285 16.3696C45.3279 16.3696 45.7108 16.3205 46.0936 16.2206C46.027 16.4702 45.927 16.7695 45.744 16.9359C45.5776 17.119 45.3112 17.2028 44.9285 17.2028C44.5955 17.2028 44.3454 17.1193 44.1955 16.9861C43.8126 16.6199 43.2796 16.4703 42.7635 16.5702H42.731C42.1483 16.6867 41.665 17.1191 41.4819 17.6851C41.3154 18.2511 41.4654 18.8839 41.8816 19.3C42.664 20.1158 43.7132 20.5315 44.9285 20.5315C46.2269 20.5315 47.3426 20.0985 48.1583 19.2662C49.4557 17.935 49.489 16.1053 49.4724 15.7546V8.97795C49.4721 8.06258 48.7563 7.29743 47.8575 7.26415C46.9089 7.26447 46.1437 7.98009 46.1437 8.94543V11.8257C46.1268 12.4913 45.5941 13.0232 44.9285 13.0233C44.2792 13.0233 44.0465 12.0581 44.0465 11.1591V8.97795C44.0462 8.06258 43.3128 7.29743 42.414 7.26415C41.4653 7.26436 40.7002 7.99666 40.7002 8.94543V11.2255Z" fill="#221D1D"/>
<path d="M36.6156 10.6105C36.8153 10.6105 36.9661 10.6761 37.0993 10.8259C37.3822 11.1753 37.7979 11.375 38.2305 11.4084L38.3985 11.4138C38.7869 11.4068 39.1545 11.2738 39.4458 11.0264L40.8426 12.6575C40.938 13.1405 41.0803 13.5836 41.2747 13.9866C40.5452 14.487 39.7195 14.772 38.8822 14.855C38.8025 17.6379 36.5121 19.8376 33.7367 19.8379C31.2825 19.8379 29.2267 18.1082 28.7227 15.8033C30.1139 15.0221 31.0569 13.5362 31.0569 11.842C31.0569 10.5501 30.3877 8.70606 28.7294 7.81012C29.2434 5.52338 31.2766 3.7959 33.7367 3.7959L33.9765 3.80132C34.3385 3.81835 34.6832 3.87633 35.0102 3.96118C35.5391 3.85212 36.0786 3.79594 36.6156 3.7959C38.6955 3.7959 40.591 4.6387 41.9887 6.08684L42.2624 6.38489L42.2759 6.40115L42.2881 6.41605C42.5409 6.71347 42.7522 7.03284 42.9249 7.36575C42.7642 7.30615 42.5923 7.27074 42.4141 7.26415C41.4654 7.26436 40.7003 7.99666 40.7003 8.94543V11.2255C40.7057 11.7367 40.7548 12.2139 40.8426 12.6575L39.4458 11.0264C39.7516 10.7643 39.944 10.4257 40.0094 10.0442L40.0283 9.87752C40.0616 9.4281 39.9292 8.99521 39.6463 8.66228C38.8638 7.76331 37.7976 7.26415 36.6156 7.26415C35.9999 7.26423 35.3674 7.3966 34.8016 7.64619C34.5021 7.41336 34.1359 7.26428 33.7367 7.26415C32.8211 7.26415 32.0717 8.01317 32.0717 8.94543V14.7046L32.0798 14.8753C32.1599 15.6559 32.7855 16.2813 33.566 16.3615L33.7367 16.3696C34.6103 16.3694 35.3226 15.7117 35.4085 14.8753L35.418 14.7046V11.8257C35.418 11.16 35.95 10.6108 36.6156 10.6105Z" fill="#221D1D"/>
<path d="M31.0569 11.8423C31.0569 10.0777 29.8082 7.28075 26.4953 7.28075C23.9984 7.28103 21.9514 9.32869 21.9514 11.8423C21.9514 14.3392 23.9984 16.3873 26.4953 16.3876C28.9304 16.3876 30.9288 14.4655 31.0514 12.0753L31.0569 11.8423ZM32.0716 14.705C32.0716 15.4255 32.5359 16.0421 33.1798 16.2724C31.7382 18.4302 29.2785 19.8559 26.4953 19.8559C23.7571 19.8557 21.3316 18.4686 19.8853 16.3619C20.7247 16.2788 21.3864 15.5652 21.3864 14.705C21.3861 13.773 20.6367 13.0237 19.7214 13.0237C19.3562 13.0237 19.1731 12.9743 19.1226 12.941C19.0893 12.8745 19.0386 12.6748 19.0386 12.1092V9.79523H19.804C20.5031 9.79523 21.0691 9.22883 21.0694 8.52986C21.0694 7.86795 20.5624 7.3259 19.9151 7.26991C21.3633 5.18381 23.7714 3.81267 26.4953 3.8125C29.2645 3.8125 31.3894 5.03944 32.7409 6.75103C32.8979 6.94998 33.0437 7.15405 33.1785 7.36203C32.5351 7.59332 32.0716 8.21254 32.0716 8.94578V14.705Z" fill="#221D1D"/>
<path d="M21.0697 8.52974C21.0697 7.8743 20.5726 7.33597 19.9344 7.27114L19.8043 7.26437H19.0389V6.01526C19.0388 5.08309 18.2898 4.33397 17.3576 4.33397C16.4421 4.334 15.6927 5.08311 15.6926 6.01526V7.26437H15.3105L15.1805 7.27114C14.5422 7.33596 14.0452 7.87429 14.0452 8.52974C14.0454 9.18499 14.5423 9.72357 15.1805 9.78833L15.3105 9.7951H15.6926V12.1091L15.7075 12.59C15.8434 14.7799 16.9382 16.1745 19.215 16.3509L19.7217 16.3699C20.5799 16.3698 21.2914 15.712 21.3772 14.8755L21.3867 14.7048C21.3864 13.7729 20.6371 13.0236 19.7217 13.0236C19.3565 13.0236 19.1734 12.9742 19.1229 12.9409C19.0896 12.8743 19.0389 12.6746 19.0389 12.1091V9.7951H19.8043L19.9344 9.78833C20.5302 9.72786 21.0026 9.25425 21.0629 8.65844L21.0697 8.52974ZM24.4743 7.76022C22.9829 8.50938 21.9517 10.0582 21.9517 11.8422C21.9517 13.6969 23.0813 15.3028 24.6856 16.0068C24.1082 18.2092 22.1031 19.8381 19.7217 19.8381C17.6403 19.8381 15.5655 19.2093 14.0709 17.535C13.4346 16.8221 12.9995 16.0251 12.712 15.202C13.9267 14.2421 14.1725 12.943 14.1725 12.4247C14.1725 9.8238 12.3918 9.24171 10.6026 9.02694C10.5938 8.94267 10.5866 8.85778 10.5823 8.77224L10.5769 8.52974L10.5823 8.28587C10.5871 8.19208 10.5952 8.09906 10.6054 8.00679C10.8634 8.1101 11.1496 8.18012 11.4914 8.1802L11.5253 8.16259C12.1245 8.02939 12.5736 7.59638 12.7568 7.01373C12.9563 6.44796 12.824 5.8323 12.4248 5.36631C12.3305 5.25883 12.2251 5.14909 12.1105 5.03846C12.1922 4.96357 12.2771 4.89212 12.3639 4.82305C12.8987 2.56481 14.9181 0.865748 17.3576 0.865723L17.6231 0.872497C19.8228 0.983771 21.6545 2.47033 22.2782 4.49112C23.4264 5.19582 24.2484 6.37788 24.4743 7.76022Z" fill="#221D1D"/>
<path d="M0 7.79663C0 5.56432 0.924872 3.55017 2.54564 2.13769C4.13323 0.754334 6.20083 0.100098 8.32921 0.100098C11.4642 0.100212 13.5642 1.5258 14.7956 2.82186L15.0313 3.07791L15.0449 3.09417L15.0571 3.10907C15.5142 3.64236 15.8619 4.2676 16.0759 4.9421C15.8369 5.23272 15.6925 5.60631 15.6925 6.01508V7.2642H15.3104C14.6112 7.2642 14.045 7.83037 14.045 8.52956C14.0453 9.22854 14.6114 9.79493 15.3104 9.79493H15.6925V12.1089C15.6926 13.5653 16.0713 14.7147 16.8833 15.4512C16.6239 15.9675 16.285 16.4922 15.8442 16.9943C14.3038 18.7486 11.9209 19.8054 8.74513 19.8054C5.78769 19.8054 3.64463 18.7534 2.24623 17.2801C0.948225 15.9125 0.558975 14.4655 0.459272 14.0002L0.460627 13.9988C0.229348 12.9432 0.343565 11.8376 0.746486 10.8598C0.27006 9.98285 6.68374e-06 8.95542 0 7.79663ZM3.47231 7.99984C3.69039 12.1642 10.659 10.2918 10.6594 12.2579C10.6594 12.7574 9.9571 12.8265 9.32498 12.8296L8.74513 12.8242C6.06507 12.8242 6.88037 11.2434 5.26605 11.2432C4.18395 11.2432 3.65053 12.4083 3.8503 13.274C3.89918 13.5018 4.55826 16.1627 8.36579 16.3291L8.74513 16.3372C13.1926 16.3371 14.0704 13.6598 14.1629 12.6115L14.1724 12.4246C14.1724 7.19732 6.97994 10.1272 6.97985 7.79663C6.97985 7.11407 8.11279 7.0813 8.32921 7.0813C9.64389 7.08151 10.1268 8.17971 11.4913 8.18003L11.5251 8.16242C12.1244 8.02922 12.5735 7.5962 12.7566 7.01356C12.9562 6.44779 12.8239 5.83213 12.4247 5.36614C11.7536 4.60139 10.5844 3.69007 8.71262 3.57918L8.32921 3.56834C5.46583 3.56834 3.46825 5.31613 3.46825 7.79663L3.47231 7.99984Z" fill="#221D1D"/>
</svg>
