<svg width="56" height="56" viewBox="0 0 56 56" fill="none" xmlns="http://www.w3.org/2000/svg">
<rect x="0.25" y="0.25" width="55.5" height="55.5" rx="27.75" fill="white"/>
<rect x="0.25" y="0.25" width="55.5" height="55.5" rx="27.75" stroke="#FAF4F2" stroke-width="0.5"/>
<path d="M28.75 24C28.75 23.5858 28.4142 23.25 28 23.25C27.5858 23.25 27.25 23.5858 27.25 24H28.75ZM31 29.75C31.4142 29.75 31.75 29.4142 31.75 29C31.75 28.5858 31.4142 28.25 31 28.25V29.75ZM18.5315 18.6643C18.208 18.9231 18.1556 19.3951 18.4143 19.7185C18.6731 20.042 19.1451 20.0944 19.4685 19.8357L18.5315 18.6643ZM21.9685 17.8357C22.292 17.5769 22.3444 17.1049 22.0857 16.7815C21.8269 16.458 21.3549 16.4056 21.0315 16.6643L21.9685 17.8357ZM36.5315 19.8357C36.8549 20.0944 37.3269 20.042 37.5857 19.7185C37.8444 19.3951 37.792 18.9231 37.4685 18.6643L36.5315 19.8357ZM34.9685 16.6643C34.6451 16.4056 34.1731 16.458 33.9143 16.7815C33.6556 17.1049 33.708 17.5769 34.0315 17.8357L34.9685 16.6643ZM28 27.5H27.25H28ZM28 24H27.25L27.25 27.5H28L28.75 27.5L28.75 24H28ZM38 28H37.25C37.25 33.1086 33.1086 37.25 28 37.25V38V38.75C33.9371 38.75 38.75 33.9371 38.75 28H38ZM28 38V37.25C22.8914 37.25 18.75 33.1086 18.75 28H18H17.25C17.25 33.9371 22.0629 38.75 28 38.75V38ZM18 28H18.75C18.75 22.8914 22.8914 18.75 28 18.75V18V17.25C22.0629 17.25 17.25 22.0629 17.25 28H18ZM28 18V18.75C33.1086 18.75 37.25 22.8914 37.25 28H38H38.75C38.75 22.0629 33.9371 17.25 28 17.25V18ZM19 19.25L19.4685 19.8357L21.9685 17.8357L21.5 17.25L21.0315 16.6643L18.5315 18.6643L19 19.25ZM37 19.25L37.4685 18.6643L34.9685 16.6643L34.5 17.25L34.0315 17.8357L36.5315 19.8357L37 19.25ZM29.5 29V29.75H31V29V28.25H29.5V29ZM28 27.5H27.25C27.25 28.7426 28.2574 29.75 29.5 29.75V29V28.25C29.0858 28.25 28.75 27.9142 28.75 27.5L28 27.5Z" fill="#4807EC"/>
</svg>
