<svg width="25" height="24" viewBox="0 0 25 24" fill="none" xmlns="http://www.w3.org/2000/svg">
<g clip-path="url(#clip0_68_4944)">
<path d="M17.75 15.7312L18.15 15.3312C18.2099 15.2714 18.2398 15.2415 18.2647 15.2158C20.1503 13.2754 20.1503 10.1871 18.2647 8.2467C18.2398 8.22102 18.2099 8.19109 18.15 8.13124L17.75 7.73124M19.75 18.7312L20.45 18.0312C21.0473 17.434 21.3459 17.1354 21.5751 16.8611C24.0567 13.8914 24.0567 9.57109 21.5751 6.60138C21.3459 6.32712 21.0472 6.02848 20.45 5.43124L19.75 4.73124M7.66496 15.8919L8.66095 16.7128C11.0831 18.7091 12.2942 19.7072 13.3096 19.4113C13.5112 19.3525 13.7023 19.2624 13.8758 19.1442C14.75 18.5489 14.75 16.9795 14.75 13.8407V9.62183C14.75 6.48302 14.75 4.91362 13.8758 4.31825C13.7023 4.20008 13.5112 4.10997 13.3096 4.05122C12.2942 3.75525 11.0831 4.75339 8.66095 6.74968L7.66496 7.57056C7.47104 7.73038 7.37409 7.81029 7.27604 7.88335C6.47972 8.47675 5.52473 8.81958 4.53282 8.86812C4.41069 8.8741 4.28505 8.8741 4.03376 8.8741C3.77022 8.8741 3.63845 8.8741 3.5276 8.8865C2.59914 8.99039 1.86629 9.72323 1.7624 10.6517C1.75 10.7625 1.75 10.8943 1.75 11.1579V12.3046C1.75 12.5682 1.75 12.6999 1.7624 12.8108C1.86629 13.7392 2.59914 14.4721 3.5276 14.576C3.63845 14.5884 3.77022 14.5884 4.03376 14.5884C4.28505 14.5884 4.41069 14.5884 4.53282 14.5944C5.52473 14.6429 6.47972 14.9857 7.27604 15.5791C7.37409 15.6522 7.47104 15.7321 7.66496 15.8919Z" stroke="#221D1D" stroke-width="1.5" stroke-linecap="round"/>
</g>
<defs>
<clipPath id="clip0_68_4944">
<rect width="24" height="24" fill="white" transform="translate(0.75)"/>
</clipPath>
</defs>
</svg>
